# xmcd CD database file
#
# Track frame offsets:
#	150
#	15696
#	30559
#
# Disc length: 711 seconds
#
# Revision: 0
# Processed by: cddbd v1.4PL0 Copyright (c) Steve Scherf et al.
# Submitted via: CDex 1.50
#
DISCID=1802c503
DTITLE=Rednex - Riding Alone
DYEAR=1997
DGENRE=Country
TTITLE0=Riding Alone
TTITLE1=Hittin' The Hay
TTITLE2=Cotton Eye Joe (Armand's Dosey-Doe Mix)
EXTD=YEAR: 1997
EXTT0=
EXTT1=
EXTT2=
PLAYORDER=
